<svg version="1.1" id="Layer_1" xmlns="http://www.w3.org/2000/svg" xmlns:xlink="http://www.w3.org/1999/xlink" x="0px" y="0px"
	 width="100%" viewBox="0 0 2500 1565" enable-background="new 0 0 2500 1565" xml:space="preserve">
<path fill="#FFFFFF" opacity="1.000000" stroke="none" 
	d="
M1.000000,751.000000 
	C1.000000,501.024963 1.000000,251.049911 1.000000,1.037439 
	C834.225159,1.037439 1667.450317,1.037439 2501.000000,1.037439 
	C2501.000000,257.365967 2501.000000,513.732117 2500.717773,770.551208 
	C2500.249512,771.030029 2500.062988,771.055908 2499.416504,771.050415 
	C2416.980469,771.061218 2335.004639,771.103455 2252.718994,771.056763 
	C2251.981689,770.947205 2251.554199,770.926514 2251.141602,770.446594 
	C2251.156494,763.754211 2251.156494,757.521179 2251.156494,751.149719 
	C2232.408691,751.149719 2214.449219,751.136841 2196.489502,751.152222 
	C2150.059814,751.192017 2103.630371,751.244324 2056.723145,751.233765 
	C2049.110840,751.024353 2041.976196,750.872803 2034.919922,750.283630 
	C2035.025269,749.180725 2035.075562,748.515381 2035.075562,747.850098 
	C2035.079224,578.771301 2035.079834,409.692535 2035.073242,240.613770 
	C2035.073120,239.507843 2034.973389,238.401917 2034.914795,237.183914 
	C2023.075562,237.183914 2011.612793,237.183914 1999.690918,237.124557 
	C1996.167847,237.091888 1993.103882,237.118561 1989.563965,237.123260 
	C1826.511597,237.101303 1663.935303,237.101303 1500.845703,237.101303 
	C1500.845703,158.581604 1500.845703,80.712685 1500.845703,2.755574 
	C1496.000244,2.755574 1491.668701,2.757098 1487.337036,2.755347 
	C1413.847046,2.725643 1340.357056,2.695533 1266.569336,2.535796 
	C1262.538818,2.467941 1258.806152,2.529803 1254.607910,2.680173 
	C1086.562256,2.768682 918.982239,2.768682 750.869873,2.768682 
	C750.869873,80.653259 750.869873,158.022202 750.869873,235.657166 
	C748.527527,235.657166 746.715515,235.657181 744.903503,235.657181 
	C672.412781,235.657257 599.922058,235.660278 527.431335,235.651108 
	C522.268738,235.650452 517.106140,235.560211 511.634033,235.326782 
	C507.879913,235.399521 504.435333,235.657089 500.791382,235.799225 
	C500.302185,235.579407 500.007141,235.493027 499.692932,235.298767 
	C499.679047,235.172943 499.426971,235.176147 499.426971,235.176147 
	C499.426971,235.176147 499.357758,235.419037 498.875031,235.509399 
	C490.960968,235.599762 483.529633,235.599762 475.742889,235.599762 
	C475.742889,237.780136 475.742889,239.412918 475.742889,241.045685 
	C475.742859,409.120728 475.741943,577.195740 475.754425,745.270813 
	C475.754547,747.095520 475.929626,748.920288 475.569916,750.829834 
	C472.043121,751.033936 468.969482,751.153320 465.431274,751.233276 
	C459.467346,751.173279 453.967896,751.134399 448.468475,751.134766 
	C301.141266,751.144226 153.814041,751.158325 6.486825,751.163452 
	C4.657886,751.163513 2.828942,751.056885 1.000000,751.000000 
z"/>
<path fill="#6DB3FE" opacity="1.000000" stroke="none" 
	d="
M2251.126465,770.905884 
	C2251.554199,770.926514 2251.981689,770.947205 2252.962402,771.358032 
	C2261.142578,773.041687 2268.840820,774.015137 2276.385254,775.684204 
	C2308.854980,782.867493 2341.311279,790.119873 2373.712646,797.605469 
	C2407.875244,805.497925 2441.964844,813.708313 2476.098145,821.728333 
	C2487.517334,824.411438 2495.901123,830.565857 2499.956543,842.383972 
	C2499.944580,845.686401 2499.905762,848.522766 2499.661621,851.640808 
	C2497.476318,857.138733 2496.206055,862.775818 2493.402100,867.503601 
	C2473.825195,900.514648 2453.877930,933.305603 2434.153564,966.229492 
	C2414.256836,999.440430 2394.447510,1032.713623 2371.375732,1063.867554 
	C2352.599121,1089.221802 2333.686523,1114.480591 2314.481445,1139.510986 
	C2299.091064,1159.569702 2283.197998,1179.243530 2267.471191,1199.042847 
	C2262.442383,1205.373535 2257.230713,1211.559204 2251.896484,1217.970947 
	C2251.451660,1218.382568 2251.213379,1218.634521 2250.649658,1218.984741 
	C2223.861816,1244.836182 2197.457031,1270.648804 2170.913086,1296.317871 
	C2156.829834,1309.937134 2142.902588,1323.758911 2128.190674,1336.675781 
	C2109.797119,1352.825439 2091.006592,1368.567627 2071.781250,1383.716309 
	C2039.879517,1408.853394 2006.350098,1431.757446 1970.921753,1451.617188 
	C1945.756348,1465.723877 1919.778442,1478.382690 1894.144043,1491.651123 
	C1887.758179,1494.956543 1881.298950,1498.120361 1874.711304,1501.522217 
	C1873.856201,1501.863159 1873.163086,1502.031372 1872.139282,1502.190918 
	C1869.537598,1503.157715 1867.288940,1504.189819 1864.992065,1505.099487 
	C1848.719482,1511.545166 1832.602539,1518.434814 1816.108398,1524.254150 
	C1801.496948,1529.409302 1786.584839,1533.835449 1771.586304,1537.742065 
	C1748.180908,1543.838379 1724.794189,1550.384888 1701.016602,1554.559814 
	C1680.297485,1558.197754 1659.053955,1558.875244 1638.032593,1560.755493 
	C1623.898193,1562.019653 1609.745850,1563.081421 1595.610107,1564.330566 
	C1595.028687,1564.381958 1594.534668,1565.421021 1594.000000,1566.000000 
	C1591.629395,1566.000000 1589.258911,1566.000000 1586.550781,1565.692139 
	C1585.808838,1565.589478 1585.404419,1565.794800 1585.000000,1566.000000 
	C1579.977905,1566.000000 1574.955811,1566.000000 1569.427246,1565.685791 
	C1568.613892,1565.581177 1568.306885,1565.790527 1568.000000,1566.000000 
	C1566.285645,1566.000000 1564.571289,1566.000000 1562.621826,1565.598022 
	C1561.642944,1564.887939 1560.921265,1564.387451 1560.152588,1564.300171 
	C1544.764648,1562.551147 1529.271362,1561.467529 1514.002319,1558.995605 
	C1490.294067,1555.157471 1466.630737,1550.882690 1443.144165,1545.874390 
	C1413.320312,1539.514893 1384.695801,1529.370117 1357.307861,1515.876465 
	C1323.969238,1499.450806 1294.708862,1476.909790 1265.559326,1454.263428 
	C1253.714966,1445.061523 1245.237671,1444.841919 1233.617432,1454.205811 
	C1221.532959,1463.943726 1209.449951,1473.719238 1196.900269,1482.836914 
	C1165.064087,1505.966309 1130.315308,1523.591431 1093.113892,1536.387573 
	C1047.131836,1552.203857 999.293579,1558.586060 951.323181,1564.319458 
	C950.493713,1564.418701 949.772034,1565.419800 949.000000,1566.000000 
	C931.312439,1566.000000 913.624878,1566.000000 895.450195,1565.677002 
	C894.642090,1565.569336 894.321045,1565.784668 894.000000,1566.000000 
	C890.638733,1566.000000 887.277405,1566.000000 883.654175,1565.597412 
	C882.149719,1564.877930 880.906250,1564.281250 879.665039,1564.285767 
	C858.269958,1564.364624 837.260132,1560.999390 816.346191,1557.032837 
	C794.542297,1552.897339 772.809448,1548.387085 750.726624,1544.002197 
	C749.985168,1543.923950 749.562622,1543.884277 748.882324,1543.564575 
	C746.887268,1542.808350 745.146484,1542.344482 743.413269,1541.854004 
	C722.378113,1535.898560 701.120850,1530.616821 680.374573,1523.783691 
	C660.986694,1517.398071 642.141296,1509.365234 622.912354,1501.877930 
	C622.011353,1501.620972 621.255127,1501.543579 620.188110,1501.225830 
	C618.763489,1500.298584 617.692749,1499.526611 616.529541,1498.937256 
	C593.736389,1487.389038 570.458374,1476.697632 548.261780,1464.100098 
	C525.242798,1451.035645 502.525238,1437.165771 481.040314,1421.746826 
	C457.956024,1405.180054 436.119202,1386.805786 414.346161,1368.496948 
	C379.747833,1339.403564 344.964966,1310.464600 311.597717,1279.995483 
	C290.535187,1260.762329 271.319031,1239.385132 252.347931,1218.016846 
	C232.253571,1195.383179 213.537186,1171.531006 194.026154,1148.373535 
	C167.222931,1116.561035 141.496841,1083.881226 118.901566,1048.968506 
	C93.436264,1009.621277 68.819809,969.710388 44.513218,929.632812 
	C30.006655,905.713928 16.810755,881.000488 2.963315,856.679688 
	C2.705673,856.227173 1.671732,856.216675 1.000002,856.000000 
	C1.000000,849.978821 1.000000,843.957703 1.294505,837.736694 
	C6.266216,830.644104 12.777857,826.370117 20.733652,824.195679 
	C35.181004,820.246948 49.601299,816.192749 64.095329,812.422729 
	C88.494019,806.076294 112.809296,799.321289 137.409561,793.864929 
	C157.789764,789.344727 178.557739,786.597290 199.103714,782.793274 
	C221.747086,778.600952 244.267838,773.714905 266.965576,769.858215 
	C283.996185,766.964417 301.196655,764.996948 318.369293,763.035706 
	C332.298737,761.444763 346.291199,760.373657 360.270935,759.264526 
	C371.476349,758.375549 382.709961,757.847961 393.921570,757.030029 
	C409.402039,755.900513 424.875366,754.670776 440.348297,753.440857 
	C448.867767,752.763733 457.380219,751.998291 465.895813,751.272583 
	C468.969482,751.153320 472.043121,751.033936 476.006500,750.789368 
	C477.728088,750.641968 478.560089,750.622559 479.391876,750.597229 
	C494.694916,750.131592 502.127350,742.575195 501.989655,727.313660 
	C501.951050,723.037170 501.454376,718.740417 500.852142,714.497803 
	C498.351013,696.878540 495.615967,679.292053 493.179596,661.664124 
	C489.931610,638.164185 487.122559,614.601440 483.671143,591.132446 
	C480.830048,571.813538 478.636688,552.489136 478.652496,532.929993 
	C478.710663,460.993500 478.825195,389.056458 478.582306,317.120758 
	C478.511566,296.170197 480.495483,275.542786 484.279907,254.967682 
	C486.128571,244.916824 490.845917,238.259674 500.990753,235.914658 
	C504.435333,235.657089 507.879913,235.399521 511.688904,235.725845 
	C513.726074,236.973679 515.369751,237.725418 517.075867,238.288330 
	C541.106628,246.217300 565.407898,253.412811 589.124084,262.189819 
	C628.348938,276.706299 667.367798,291.817749 706.147461,307.485565 
	C733.461975,318.521210 760.436523,330.460358 787.185791,342.812653 
	C807.205566,352.057465 826.849915,362.186523 846.254700,372.674591 
	C871.908203,386.540039 897.231445,401.023346 922.562866,415.475464 
	C935.070923,422.611603 947.252136,430.318604 959.630981,437.683746 
	C970.748108,444.298187 978.485901,441.979309 984.385193,430.322876 
	C986.556458,426.032776 988.496399,421.626068 990.642090,417.322510 
	C1008.863770,380.775726 1027.013916,344.192749 1045.388916,307.723145 
	C1053.822510,290.984802 1061.855835,273.955963 1071.571289,257.970886 
	C1091.855103,224.597092 1112.462769,191.378128 1134.196289,158.938904 
	C1156.190186,126.110817 1179.205811,93.931885 1202.726440,62.174141 
	C1218.464355,40.924641 1231.917480,17.419191 1255.073486,2.591664 
	C1258.806152,2.529803 1262.538818,2.467941 1266.647339,2.894441 
	C1269.127808,4.965079 1271.550537,6.260636 1273.281250,8.180070 
	C1280.165894,15.815831 1287.054077,23.467489 1293.546021,31.434965 
	C1323.473999,68.164558 1349.767944,107.538460 1376.702881,146.434387 
	C1419.451538,208.166550 1455.512085,273.820404 1489.911621,340.439240 
	C1503.999390,367.721710 1518.163574,394.966766 1532.571045,422.081055 
	C1538.716187,433.645813 1543.497314,434.867096 1554.422485,429.056580 
	C1574.493042,418.382111 1594.553467,407.687744 1614.680786,397.121002 
	C1647.162354,380.068390 1679.755249,363.226807 1712.188843,346.084015 
	C1745.661987,328.391876 1779.704468,311.865967 1815.020630,298.248291 
	C1848.658325,285.277802 1882.647339,273.191345 1916.674805,261.266754 
	C1940.964600,252.754639 1965.573486,245.153122 1990.040039,237.145233 
	C1993.103882,237.118561 1996.167847,237.091888 1999.915527,237.385712 
	C2007.092773,238.627701 2011.743042,242.416214 2014.149170,248.156647 
	C2016.027954,252.638794 2017.125610,257.657806 2017.496826,262.520172 
	C2018.354248,273.752136 2018.423706,285.041565 2019.058960,296.293762 
	C2020.205811,316.606720 2021.505371,336.911224 2022.796753,357.215729 
	C2023.436890,367.282532 2024.890625,377.352844 2024.725220,387.401001 
	C2024.537842,398.794617 2028.741211,410.420563 2023.379883,421.627625 
	C2022.900635,422.629333 2022.821289,423.900848 2022.828735,425.045319 
	C2022.976196,448.020142 2023.319946,470.995026 2023.268921,493.969147 
	C2023.247437,503.571930 2022.726685,513.201599 2021.872314,522.768982 
	C2019.846069,545.456848 2017.563354,568.122864 2015.234863,590.782349 
	C2013.192261,610.659180 2011.156616,630.540771 2008.738770,650.374084 
	C2005.528687,676.706177 2001.846436,702.980591 1998.579712,729.306213 
	C1997.211426,740.332947 2005.402466,749.467407 2016.440430,749.887390 
	C2022.575806,750.120728 2028.707886,750.440430 2034.841431,750.721252 
	C2041.976196,750.872803 2049.110840,751.024353 2057.067383,751.431519 
	C2070.790771,752.121521 2083.722656,752.143799 2096.586182,753.092529 
	C2113.345703,754.328674 2130.062500,756.187439 2146.775879,757.984558 
	C2164.786377,759.921326 2182.786133,761.976013 2200.762939,764.203003 
	C2217.569580,766.284973 2234.340088,768.659912 2251.126465,770.905884 
M1552.597900,951.040771 
	C1553.489014,938.504700 1554.405273,925.970276 1555.265381,913.432068 
	C1556.533691,894.942810 1558.158325,876.465942 1558.866577,857.954529 
	C1559.332397,845.779907 1558.383545,833.554688 1558.220337,821.350098 
	C1558.176392,818.065796 1559.081055,814.749756 1558.880249,811.489624 
	C1557.589111,790.522583 1556.582642,769.521057 1554.545166,748.622314 
	C1552.931519,732.070312 1551.330688,715.314575 1547.356812,699.234375 
	C1536.958374,657.157043 1525.427246,615.355347 1514.031128,573.529968 
	C1505.367920,541.734863 1494.634766,510.618774 1481.345215,480.440979 
	C1469.656860,453.899292 1458.260254,427.204773 1445.672485,401.089874 
	C1431.190918,371.046173 1416.690918,340.905029 1400.093018,312.016174 
	C1381.633057,279.886688 1361.451294,248.684647 1340.826050,217.877640 
	C1318.002686,183.787445 1297.419800,148.052704 1269.433472,117.586098 
	C1262.416260,109.947021 1254.340576,109.517830 1248.298218,117.893372 
	C1240.065308,129.305191 1231.943481,140.807587 1224.120483,152.502899 
	C1197.154419,192.817261 1169.567139,232.746338 1143.724243,273.771851 
	C1125.026001,303.455139 1108.133667,334.331024 1091.549805,365.272064 
	C1080.352051,386.163910 1070.864868,407.990662 1061.015625,429.583130 
	C1043.552979,467.866699 1028.440186,507.100372 1014.943970,546.941467 
	C1002.275208,584.339966 991.621643,622.336243 983.535706,660.986938 
	C979.147888,681.960876 975.486694,703.108704 972.230774,724.290771 
	C969.526306,741.885559 967.711731,759.625977 965.838989,777.337341 
	C964.068237,794.084412 962.233826,810.851379 961.352783,827.658081 
	C960.503174,843.864624 960.483093,860.139099 960.756775,876.372559 
	C960.994080,890.441711 961.534851,904.562683 963.056824,918.539185 
	C965.108521,937.380005 967.967163,956.146118 970.951782,974.868958 
	C975.716187,1004.756958 983.343079,1033.984497 993.037170,1062.623413 
	C1005.078003,1098.194824 1020.534546,1132.223877 1040.022339,1164.414795 
	C1063.545898,1203.272217 1091.742798,1238.179932 1126.859985,1267.117554 
	C1158.774170,1293.415771 1193.795044,1314.701416 1232.493408,1329.634399 
	C1250.184082,1336.460693 1267.729248,1337.510010 1285.330688,1328.804321 
	C1296.469971,1323.295044 1307.963013,1318.488159 1319.373657,1313.542236 
	C1355.104980,1298.054932 1386.429077,1276.110962 1414.074219,1248.836914 
	C1436.828857,1226.387695 1456.564209,1201.473389 1473.283447,1174.242676 
	C1490.122192,1146.817505 1506.380371,1118.967407 1516.619141,1088.306274 
	C1525.831787,1060.717651 1534.275146,1032.832397 1541.856079,1004.753418 
	C1546.525635,987.458069 1548.941162,969.554138 1552.597900,951.040771 
M1665.367188,1322.867676 
	C1648.099365,1334.265259 1630.929810,1345.815796 1613.538208,1357.021240 
	C1592.622925,1370.496826 1571.214233,1383.089600 1547.942505,1392.225098 
	C1523.743286,1401.724854 1498.834229,1408.842285 1473.612549,1414.998291 
	C1450.522217,1420.633911 1427.244019,1425.005127 1403.499756,1426.761108 
	C1394.299072,1427.441528 1385.069336,1428.254150 1375.998291,1429.839111 
	C1373.320435,1430.307129 1370.047729,1433.174927 1368.995850,1435.741455 
	C1367.531860,1439.313477 1369.972290,1442.708984 1373.126953,1444.990967 
	C1374.596558,1446.053833 1376.197021,1446.988647 1377.848389,1447.738647 
	C1389.770264,1453.152954 1401.832520,1458.271118 1413.637573,1463.926880 
	C1436.015625,1474.648315 1459.514404,1481.866943 1483.898682,1485.849976 
	C1506.808350,1489.592163 1529.877075,1492.387329 1552.907593,1495.352539 
	C1563.052246,1496.658691 1573.260864,1497.656372 1583.471558,1498.153076 
	C1586.737305,1498.311768 1590.071411,1495.723267 1593.429077,1495.567139 
	C1609.343384,1494.826416 1625.289795,1494.748291 1641.198486,1493.924927 
	C1652.229004,1493.354004 1663.369507,1492.776123 1674.191772,1490.758057 
	C1697.320190,1486.445068 1720.559937,1482.247681 1743.234497,1476.090088 
	C1780.128784,1466.070557 1815.972534,1452.783936 1850.429565,1436.081421 
	C1870.005127,1426.592529 1889.502686,1416.902344 1908.666260,1406.615112 
	C1927.350220,1396.585449 1946.174316,1386.601929 1963.825684,1374.919189 
	C1984.503540,1361.233398 2004.063721,1345.844604 2023.959961,1330.995361 
	C2056.200439,1306.933472 2088.164551,1282.475342 2117.240967,1254.595947 
	C2135.385742,1237.197998 2152.948975,1219.165161 2170.228516,1200.901733 
	C2186.865723,1183.317139 2203.195801,1165.406860 2218.943604,1147.025024 
	C2237.025146,1125.919189 2254.851318,1104.549438 2271.841064,1082.562134 
	C2305.676270,1038.774536 2336.977539,993.157349 2366.885254,946.612854 
	C2377.803467,929.621094 2387.887939,912.066956 2397.744385,894.429443 
	C2403.782471,883.624573 2397.653564,870.398804 2385.624756,867.958496 
	C2354.995850,861.744690 2324.345703,855.571289 2293.560303,850.208496 
	C2262.090820,844.726685 2230.385742,840.605652 2198.902344,835.198486 
	C2164.727295,829.329163 2130.327637,825.591553 2095.787354,823.146606 
	C2077.099365,821.823730 2058.336670,821.378418 2039.598145,821.010193 
	C2027.810181,820.778442 2016.004639,821.638306 2004.207642,821.616577 
	C1991.012939,821.592346 1980.379272,825.637695 1975.265259,838.810913 
	C1970.057129,852.226929 1964.859985,865.660522 1960.186279,879.267822 
	C1951.692261,903.997986 1943.995239,929.007996 1935.170288,953.616089 
	C1929.921265,968.252869 1922.780518,982.200378 1917.150757,996.713989 
	C1906.033447,1025.374390 1893.047119,1053.125366 1878.044678,1079.938965 
	C1861.359375,1109.760376 1842.414551,1138.135864 1822.342896,1165.749268 
	C1792.554688,1206.730103 1760.890625,1246.179077 1722.062500,1279.075928 
	C1704.045166,1294.340942 1684.663696,1307.995728 1665.367188,1322.867676 
M629.723816,1088.778442 
	C628.739685,1087.054565 627.644592,1085.383911 626.787964,1083.598755 
	C612.650696,1054.138306 597.871399,1024.962769 584.579407,995.124878 
	C561.923950,944.267761 542.515930,892.121521 526.561707,838.763062 
	C522.974304,826.765198 515.800354,821.486755 503.433685,821.589966 
	C490.140930,821.700806 476.841644,821.217834 463.547699,820.892944 
	C458.763123,820.776001 453.929901,819.758972 449.214569,820.192688 
	C427.375549,822.201416 405.575592,824.629700 383.751129,826.802124 
	C365.691498,828.599976 347.581909,829.947205 329.558105,832.041809 
	C306.159821,834.760864 282.687378,837.227722 259.493591,841.232178 
	C222.201141,847.670898 185.079636,855.122925 147.952972,862.484985 
	C136.018967,864.851440 124.141975,867.787476 112.529465,871.397583 
	C104.237320,873.975464 100.269417,882.777344 103.003838,891.052856 
	C104.698364,896.181091 106.998360,901.290588 109.967171,905.787476 
	C132.511383,939.935425 155.114227,974.047607 178.047882,1007.934692 
	C195.963486,1034.406982 213.889267,1060.898560 232.728531,1086.711548 
	C247.838715,1107.415161 263.973633,1127.405396 280.319550,1147.161499 
	C292.575928,1161.974854 305.494171,1176.294067 318.829407,1190.148315 
	C337.496643,1209.541748 356.281769,1228.886108 376.028809,1247.157471 
	C394.719910,1264.451660 414.587280,1280.490112 434.175629,1296.794678 
	C455.025269,1314.149048 475.953949,1331.420532 497.206451,1348.276367 
	C534.012390,1377.468262 575.394470,1399.261719 616.605347,1421.313721 
	C640.914734,1434.321899 665.581238,1446.520264 692.025574,1454.601685 
	C714.131409,1461.356934 736.500549,1467.261841 758.546875,1474.198853 
	C801.897156,1487.839722 846.487366,1494.159058 891.583984,1497.773926 
	C911.626404,1499.380615 931.551331,1497.740967 951.341064,1494.875610 
	C974.148499,1491.573364 996.984131,1488.215942 1019.563721,1483.671265 
	C1037.287842,1480.103760 1055.043945,1475.827026 1072.045532,1469.783081 
	C1089.010010,1463.752441 1104.910400,1454.789185 1121.572998,1447.818359 
	C1128.000122,1445.129639 1129.735474,1439.916748 1132.429932,1435.077393 
	C1126.977661,1428.996704 1119.890869,1428.397095 1113.088501,1427.309326 
	C1083.985840,1422.656006 1054.839233,1418.273560 1025.755493,1413.506958 
	C1001.547485,1409.539429 977.596802,1403.872803 955.671570,1392.805298 
	C925.949768,1377.802124 896.553833,1362.032715 867.819214,1345.222778 
	C822.236633,1318.556274 781.372192,1285.682739 745.425903,1246.911499 
	C731.566223,1231.962524 717.708191,1216.940430 704.903381,1201.099731 
	C676.645630,1166.142090 651.607971,1128.938477 629.723816,1088.778442 
M933.692810,583.164795 
	C937.622925,569.162415 941.653625,555.187134 945.432251,541.143982 
	C946.882874,535.752747 948.679443,530.206238 948.676636,524.731384 
	C948.672729,516.853882 942.887756,512.157898 936.687134,508.208923 
	C918.941345,496.907257 901.396179,485.277100 883.428467,474.340668 
	C861.788940,461.169312 840.256653,447.703400 817.861267,435.916626 
	C769.117188,410.262482 719.199097,386.963745 668.086548,366.399139 
	C634.498840,352.885468 600.508545,340.362854 566.591492,327.682983 
	C556.289246,323.831543 547.942200,329.496765 546.861450,340.447083 
	C546.116150,347.998871 545.235474,355.586151 545.251892,363.155762 
	C545.319763,394.441681 545.600220,425.728363 546.021667,457.011810 
	C546.227417,472.277771 546.860291,487.539185 547.400513,502.799072 
	C547.840393,515.221680 548.323975,527.644470 548.977051,540.057251 
	C550.125244,561.883789 551.287720,583.711121 552.697266,605.521790 
	C553.581604,619.205811 553.913391,633.038147 556.275391,646.491028 
	C561.402771,675.694702 568.193726,704.607666 573.251404,733.821777 
	C575.685974,747.883972 583.104187,754.284363 596.666931,754.949280 
	C596.833252,754.957397 597.002197,754.937256 597.166382,754.958374 
	C613.340881,757.034729 629.552856,758.859680 645.680176,761.254333 
	C667.984680,764.566162 690.287354,767.963501 712.475769,771.962463 
	C733.857178,775.815918 755.295044,779.675415 776.345215,784.973877 
	C809.623047,793.350098 842.599243,802.925293 875.700378,812.002991 
	C887.453064,815.226074 894.987915,809.883118 896.087463,797.656433 
	C896.693665,790.914917 897.444946,784.183594 898.277954,777.465942 
	C900.713013,757.829102 903.057312,738.178955 905.747620,718.576599 
	C908.528992,698.310242 910.705627,677.890259 914.906433,657.907349 
	C920.131531,633.051575 927.160095,608.574951 933.692810,583.164795 
M1606.807007,666.543091 
	C1609.619751,683.280518 1612.787231,699.968018 1615.150879,716.768616 
	C1617.818726,735.732849 1619.708740,754.805542 1622.055054,773.816589 
	C1622.822510,780.034973 1623.440552,786.346985 1625.057739,792.366089 
	C1627.047974,799.773376 1632.326050,803.921814 1639.775513,802.994568 
	C1652.671143,801.389465 1665.554565,799.213989 1678.216309,796.294128 
	C1710.807007,788.778625 1743.070923,779.706665 1775.849121,773.185120 
	C1805.851074,767.215881 1836.397705,764.030090 1866.620605,759.104858 
	C1882.032104,756.593323 1897.377686,753.428955 1912.528809,749.657959 
	C1922.393677,747.202698 1928.644409,740.015442 1931.009155,730.015747 
	C1932.409546,724.093872 1933.349609,718.052429 1934.273804,712.030579 
	C1938.174561,686.613281 1942.460938,661.242554 1945.686646,635.738464 
	C1948.152100,616.245789 1949.471191,596.595215 1950.871094,576.984192 
	C1952.379517,555.851196 1953.448486,534.685730 1954.595215,513.528259 
	C1955.437744,497.980835 1956.075684,482.422363 1956.846924,466.870880 
	C1957.224487,459.254913 1957.744141,451.645935 1958.113281,444.029602 
	C1958.450195,437.077942 1958.993042,430.114471 1958.861816,423.167236 
	C1958.690186,414.066833 1957.650269,404.981628 1957.513062,395.881927 
	C1957.275391,380.110931 1957.777710,364.324738 1957.346558,348.561951 
	C1956.934082,333.478973 1945.985352,324.773102 1931.446411,328.684723 
	C1916.146729,332.801025 1900.980713,337.735748 1886.245117,343.551697 
	C1863.622314,352.480713 1841.321289,362.250397 1819.059692,372.062714 
	C1791.013184,384.424927 1762.820190,396.526276 1735.288208,409.964844 
	C1707.263794,423.643768 1679.711914,438.352814 1652.428101,453.468262 
	C1630.266602,465.745941 1608.741455,479.182343 1587.059814,492.312378 
	C1570.432251,502.381744 1564.556396,520.380249 1572.625854,538.349243 
	C1576.416382,546.789795 1579.933716,555.397217 1582.890015,564.160095 
	C1594.046753,597.229431 1601.529907,631.187866 1606.807007,666.543091 
M1048.888550,1284.592407 
	C1043.030151,1278.248657 1037.161133,1271.914551 1031.315308,1265.559326 
	C1016.930603,1249.920898 1003.442749,1233.456055 993.285828,1214.812744 
	C979.561096,1189.620972 966.611206,1163.978760 954.157471,1138.130737 
	C941.922913,1112.737671 932.070740,1086.324951 923.991333,1059.298950 
	C910.560608,1014.372070 903.960388,968.116089 898.407715,921.752991 
	C895.705627,899.191406 884.188904,884.480164 863.838501,876.312683 
	C853.917847,872.331055 843.258789,870.229614 833.175537,866.604919 
	C800.303528,854.788208 766.335449,847.455444 732.082214,841.193298 
	C708.615173,836.903198 685.157715,832.561035 661.694763,828.248596 
	C656.038025,827.208984 650.400085,825.555542 644.710632,825.345459 
	C638.672363,825.122437 632.581482,826.264282 626.516602,826.842163 
	C622.406067,827.233826 618.288635,828.129211 614.195557,828.018066 
	C602.320496,827.695557 595.813538,836.372925 600.081116,849.557678 
	C605.123901,865.137451 609.931824,880.798401 615.269714,896.276489 
	C627.596252,932.019165 642.580139,966.683716 659.054993,1000.677917 
	C679.919556,1043.729858 704.977783,1084.354004 732.067383,1123.725220 
	C749.265503,1148.720459 768.084778,1172.455811 789.731689,1193.791260 
	C798.706543,1202.636841 808.116089,1211.054932 817.542297,1219.426147 
	C833.520386,1233.615723 849.344849,1248.006348 865.823608,1261.597412 
	C888.705322,1280.469360 912.946167,1297.489014 939.071106,1311.679321 
	C964.341125,1325.405518 990.676331,1336.564331 1018.276550,1344.738770 
	C1043.015015,1352.065674 1068.289551,1356.455200 1093.911255,1359.053345 
	C1100.139160,1359.684937 1106.368286,1360.342896 1112.612061,1360.761230 
	C1116.434082,1361.017334 1119.101440,1359.169678 1120.963135,1355.696045 
	C1122.752075,1352.358521 1120.727051,1350.231812 1118.962891,1348.203247 
	C1116.374023,1345.226196 1113.638062,1342.271484 1110.531738,1339.866821 
	C1088.833862,1323.069824 1068.764893,1304.470825 1048.888550,1284.592407 
M1750.898193,1149.412109 
	C1751.561401,1148.668457 1752.275024,1147.963623 1752.880249,1147.175537 
	C1773.590576,1120.210205 1791.508911,1091.455322 1808.498535,1062.026978 
	C1830.486206,1023.941589 1851.330933,985.344727 1866.593628,943.988037 
	C1874.215088,923.336670 1881.552246,902.579895 1888.940674,881.843201 
	C1893.273560,869.682556 1897.512939,857.487671 1901.683960,845.270508 
	C1904.869995,835.938477 1900.922485,829.393982 1891.344238,828.140442 
	C1887.412476,827.625793 1883.423462,827.292908 1879.462036,827.307861 
	C1867.196167,827.354004 1854.647583,826.002869 1842.723633,828.109070 
	C1816.809082,832.686523 1791.199219,839.005127 1765.491455,844.731384 
	C1735.596680,851.390259 1705.717651,858.120667 1675.858765,864.938293 
	C1665.260376,867.358276 1654.380981,868.991821 1644.984985,875.149231 
	C1629.990967,884.975220 1624.039062,899.860291 1622.072144,916.729492 
	C1619.816895,936.071472 1618.695068,955.564453 1615.887573,974.817932 
	C1613.036743,994.369995 1609.734131,1013.964783 1604.872437,1033.094238 
	C1591.189209,1086.932129 1570.624146,1138.175171 1544.047729,1186.970581 
	C1523.767944,1224.205322 1498.058350,1257.403809 1468.369385,1287.544067 
	C1461.051392,1294.973389 1452.901001,1301.579224 1445.193726,1308.629761 
	C1433.077759,1319.713135 1420.893433,1330.726440 1409.003906,1342.048828 
	C1405.640259,1345.252075 1403.202148,1349.427124 1399.965088,1353.644409 
	C1406.627075,1356.748779 1412.221191,1358.672974 1418.829102,1356.893799 
	C1425.009155,1355.229858 1431.404541,1354.316040 1437.739990,1353.286133 
	C1460.052979,1349.658691 1482.091064,1345.031372 1503.528320,1337.607910 
	C1526.844482,1329.533936 1548.597168,1318.317871 1569.955811,1306.165771 
	C1608.847046,1284.038208 1644.489624,1257.417603 1677.677612,1227.547852 
	C1692.114136,1214.554810 1705.931885,1200.803345 1719.253174,1186.663940 
	C1730.247681,1174.994263 1740.097290,1162.246094 1750.898193,1149.412109 
z"/>
<path fill="#000000" opacity="1.000000" stroke="none" 
	d="
M1.000002,856.468628 
	C1.671732,856.216675 2.705673,856.227173 2.963315,856.679688 
	C16.810755,881.000488 30.006655,905.713928 44.513218,929.632812 
	C68.819809,969.710388 93.436264,1009.621277 118.901566,1048.968506 
	C141.496841,1083.881226 167.222931,1116.561035 194.026154,1148.373535 
	C213.537186,1171.531006 232.253571,1195.383179 252.347931,1218.016846 
	C271.319031,1239.385132 290.535187,1260.762329 311.597717,1279.995483 
	C344.964966,1310.464600 379.747833,1339.403564 414.346161,1368.496948 
	C436.119202,1386.805786 457.956024,1405.180054 481.040314,1421.746826 
	C502.525238,1437.165771 525.242798,1451.035645 548.261780,1464.100098 
	C570.458374,1476.697632 593.736389,1487.389038 616.529541,1498.937256 
	C617.692749,1499.526611 618.763489,1500.298584 619.675049,1501.100464 
	C414.473389,1501.223511 209.474030,1501.232056 4.474644,1501.229858 
	C3.316428,1501.229858 2.158213,1501.079956 0.999999,1501.000000 
	C1.000000,1286.312500 1.000000,1071.624878 1.000002,856.468628 
z"/>
<path fill="#FFFFFF" opacity="1.000000" stroke="none" 
	d="
M1872.469971,1502.199707 
	C1873.163086,1502.031372 1873.856201,1501.863159 1875.188477,1501.469116 
	C2000.842163,1501.243286 2125.856689,1501.243286 2251.131836,1501.243286 
	C2251.131836,1499.333130 2251.131592,1498.023926 2251.131592,1496.714722 
	C2251.131836,1405.267456 2251.133057,1313.820312 2251.125977,1222.373047 
	C2251.125977,1221.210815 2251.027344,1220.048584 2250.974854,1218.886353 
	C2251.213379,1218.634521 2251.451660,1218.382568 2252.359863,1218.016846 
	C2335.302002,1217.900635 2417.574219,1217.898438 2500.133545,1217.937500 
	C2500.614014,1217.985840 2500.807129,1217.992920 2501.000000,1218.000000 
	C2501.000000,1333.948853 2501.000000,1449.897827 2501.000000,1566.000000 
	C2291.976562,1566.000000 2082.953369,1566.000000 1873.269775,1565.567139 
	C1872.563110,1544.156128 1872.516602,1523.177979 1872.469971,1502.199707 
z"/>
<path fill="#FEFEFE" opacity="1.000000" stroke="none" 
	d="
M0.999999,1501.468628 
	C2.158213,1501.079956 3.316428,1501.229858 4.474644,1501.229858 
	C209.474030,1501.232056 414.473389,1501.223511 619.985840,1501.340820 
	C621.255127,1501.543579 622.011353,1501.620972 622.856323,1502.340576 
	C622.945068,1516.543457 622.945068,1530.104126 622.945068,1543.844482 
	C665.408386,1543.844482 707.274231,1543.844482 749.140076,1543.844482 
	C749.562622,1543.884277 749.985168,1543.923950 750.720886,1544.467041 
	C751.022705,1551.980347 751.011353,1558.990112 751.000000,1566.000000 
	C501.000000,1566.000000 250.999985,1566.000000 1.000000,1566.000000 
	C1.000000,1544.581055 1.000000,1523.259155 0.999999,1501.468628 
z"/>
<path fill="#000101" opacity="1.000000" stroke="none" 
	d="
M949.468628,1566.000000 
	C949.772034,1565.419800 950.493713,1564.418701 951.323181,1564.319458 
	C999.293579,1558.586060 1047.131836,1552.203857 1093.113892,1536.387573 
	C1130.315308,1523.591431 1165.064087,1505.966309 1196.900269,1482.836914 
	C1209.449951,1473.719238 1221.532959,1463.943726 1233.617432,1454.205811 
	C1245.237671,1444.841919 1253.714966,1445.061523 1265.559326,1454.263428 
	C1294.708862,1476.909790 1323.969238,1499.450806 1357.307861,1515.876465 
	C1384.695801,1529.370117 1413.320312,1539.514893 1443.144165,1545.874390 
	C1466.630737,1550.882690 1490.294067,1555.157471 1514.002319,1558.995605 
	C1529.271362,1561.467529 1544.764648,1562.551147 1560.152588,1564.300171 
	C1560.921265,1564.387451 1561.642944,1564.887939 1562.193359,1565.598022 
	C1357.979126,1566.000000 1153.958252,1566.000000 949.468628,1566.000000 
z"/>
<path fill="#030304" opacity="1.000000" stroke="none" 
	d="
M465.431274,751.233276 
	C457.380219,751.998291 448.867767,752.763733 440.348297,753.440857 
	C424.875366,754.670776 409.402039,755.900513 393.921570,757.030029 
	C382.709961,757.847961 371.476349,758.375549 360.270935,759.264526 
	C346.291199,760.373657 332.298737,761.444763 318.369293,763.035706 
	C301.196655,764.996948 283.996185,766.964417 266.965576,769.858215 
	C244.267838,773.714905 221.747086,778.600952 199.103714,782.793274 
	C178.557739,786.597290 157.789764,789.344727 137.409561,793.864929 
	C112.809296,799.321289 88.494019,806.076294 64.095329,812.422729 
	C49.601299,816.192749 35.181004,820.246948 20.733652,824.195679 
	C12.777857,826.370117 6.266216,830.644104 1.294505,837.268433 
	C1.000000,808.645752 1.000000,780.291565 1.000000,751.468628 
	C2.828942,751.056885 4.657886,751.163513 6.486825,751.163452 
	C153.814041,751.158325 301.141266,751.144226 448.468475,751.134766 
	C453.967896,751.134399 459.467346,751.173279 465.431274,751.233276 
z"/>
<path fill="#010102" opacity="1.000000" stroke="none" 
	d="
M1872.139404,1502.190918 
	C1872.516602,1523.177979 1872.563110,1544.156128 1872.804932,1565.567139 
	C1780.312378,1566.000000 1687.624878,1566.000000 1594.468628,1566.000000 
	C1594.534668,1565.421021 1595.028687,1564.381958 1595.610107,1564.330566 
	C1609.745850,1563.081421 1623.898193,1562.019653 1638.032593,1560.755493 
	C1659.053955,1558.875244 1680.297485,1558.197754 1701.016602,1554.559814 
	C1724.794189,1550.384888 1748.180908,1543.838379 1771.586304,1537.742065 
	C1786.584839,1533.835449 1801.496948,1529.409302 1816.108398,1524.254150 
	C1832.602539,1518.434814 1848.719482,1511.545166 1864.992065,1505.099487 
	C1867.288940,1504.189819 1869.537598,1503.157715 1872.139404,1502.190918 
z"/>
<path fill="#020304" opacity="1.000000" stroke="none" 
	d="
M751.468689,1566.000000 
	C751.011353,1558.990112 751.022705,1551.980347 751.039795,1544.505615 
	C772.809448,1548.387085 794.542297,1552.897339 816.346191,1557.032837 
	C837.260132,1560.999390 858.269958,1564.364624 879.665039,1564.285767 
	C880.906250,1564.281250 882.149719,1564.877930 883.196045,1565.597412 
	C839.312439,1566.000000 795.624878,1566.000000 751.468689,1566.000000 
z"/>
<path fill="#BDBEBE" opacity="1.000000" stroke="none" 
	d="
M2501.000000,1217.535034 
	C2500.807129,1217.992920 2500.614014,1217.985840 2500.189453,1217.478394 
	C2499.972412,1142.384644 2500.005371,1067.791138 2499.993408,993.197693 
	C2499.985840,945.918152 2499.911621,898.638672 2499.867188,851.359131 
	C2499.905762,848.522766 2499.944580,845.686401 2499.876465,841.924316 
	C2499.805420,817.693054 2499.841064,794.387390 2499.876953,771.081787 
	C2500.062988,771.055908 2500.249512,771.030029 2500.717773,771.002075 
	C2501.000000,919.690002 2501.000000,1068.380005 2501.000000,1217.535034 
z"/>
<path fill="#010102" opacity="1.000000" stroke="none" 
	d="
M1585.250000,1566.000000 
	C1585.404419,1565.794800 1585.808838,1565.589478 1586.106567,1565.692139 
	C1586.000000,1566.000000 1585.500000,1566.000000 1585.250000,1566.000000 
z"/>
<path fill="#000101" opacity="1.000000" stroke="none" 
	d="
M1568.250000,1566.000000 
	C1568.306885,1565.790527 1568.613892,1565.581177 1568.960449,1565.685791 
	C1569.000000,1566.000000 1568.500000,1566.000000 1568.250000,1566.000000 
z"/>
<path fill="#020304" opacity="1.000000" stroke="none" 
	d="
M894.250000,1566.000000 
	C894.321045,1565.784668 894.642090,1565.569336 894.981567,1565.677002 
	C895.000000,1566.000000 894.500000,1566.000000 894.250000,1566.000000 
z"/>
<path fill="#000000" opacity="1.000000" stroke="none" 
	d="
M1254.607910,2.680173 
	C1231.917480,17.419191 1218.464355,40.924641 1202.726440,62.174141 
	C1179.205811,93.931885 1156.190186,126.110817 1134.196289,158.938904 
	C1112.462769,191.378128 1091.855103,224.597092 1071.571289,257.970886 
	C1061.855835,273.955963 1053.822510,290.984802 1045.388916,307.723145 
	C1027.013916,344.192749 1008.863770,380.775726 990.642090,417.322510 
	C988.496399,421.626068 986.556458,426.032776 984.385193,430.322876 
	C978.485901,441.979309 970.748108,444.298187 959.630981,437.683746 
	C947.252136,430.318604 935.070923,422.611603 922.562866,415.475464 
	C897.231445,401.023346 871.908203,386.540039 846.254700,372.674591 
	C826.849915,362.186523 807.205566,352.057465 787.185791,342.812653 
	C760.436523,330.460358 733.461975,318.521210 706.147461,307.485565 
	C667.367798,291.817749 628.348938,276.706299 589.124084,262.189819 
	C565.407898,253.412811 541.106628,246.217300 517.075867,238.288330 
	C515.369751,237.725418 513.726074,236.973679 511.998474,235.910675 
	C517.106140,235.560211 522.268738,235.650452 527.431335,235.651108 
	C599.922058,235.660278 672.412781,235.657257 744.903503,235.657181 
	C746.715515,235.657181 748.527527,235.657166 750.869873,235.657166 
	C750.869873,158.022202 750.869873,80.653259 750.869873,2.768682 
	C918.982239,2.768682 1086.562256,2.768682 1254.607910,2.680173 
z"/>
<path fill="#000001" opacity="1.000000" stroke="none" 
	d="
M1989.563965,237.123276 
	C1965.573486,245.153122 1940.964600,252.754639 1916.674805,261.266754 
	C1882.647339,273.191345 1848.658325,285.277802 1815.020630,298.248291 
	C1779.704468,311.865967 1745.661987,328.391876 1712.188843,346.084015 
	C1679.755249,363.226807 1647.162354,380.068390 1614.680786,397.121002 
	C1594.553467,407.687744 1574.493042,418.382111 1554.422485,429.056580 
	C1543.497314,434.867096 1538.716187,433.645813 1532.571045,422.081055 
	C1518.163574,394.966766 1503.999390,367.721710 1489.911621,340.439240 
	C1455.512085,273.820404 1419.451538,208.166550 1376.702881,146.434387 
	C1349.767944,107.538460 1323.473999,68.164558 1293.546021,31.434965 
	C1287.054077,23.467489 1280.165894,15.815831 1273.281250,8.180070 
	C1271.550537,6.260636 1269.127808,4.965079 1266.945068,3.024157 
	C1340.357056,2.695533 1413.847046,2.725643 1487.337036,2.755347 
	C1491.668701,2.757098 1496.000244,2.755574 1500.845703,2.755574 
	C1500.845703,80.712685 1500.845703,158.581604 1500.845703,237.101303 
	C1663.935303,237.101303 1826.511597,237.101303 1989.563965,237.123276 
z"/>
<path fill="#010203" opacity="1.000000" stroke="none" 
	d="
M2034.919922,750.283630 
	C2028.707886,750.440430 2022.575806,750.120728 2016.440430,749.887390 
	C2005.402466,749.467407 1997.211426,740.332947 1998.579712,729.306213 
	C2001.846436,702.980591 2005.528687,676.706177 2008.738770,650.374084 
	C2011.156616,630.540771 2013.192261,610.659180 2015.234863,590.782349 
	C2017.563354,568.122864 2019.846069,545.456848 2021.872314,522.768982 
	C2022.726685,513.201599 2023.247437,503.571930 2023.268921,493.969147 
	C2023.319946,470.995026 2022.976196,448.020142 2022.828735,425.045319 
	C2022.821289,423.900848 2022.900635,422.629333 2023.379883,421.627625 
	C2028.741211,410.420563 2024.537842,398.794617 2024.725220,387.401001 
	C2024.890625,377.352844 2023.436890,367.282532 2022.796753,357.215729 
	C2021.505371,336.911224 2020.205811,316.606720 2019.058960,296.293762 
	C2018.423706,285.041565 2018.354248,273.752136 2017.496826,262.520172 
	C2017.125610,257.657806 2016.027954,252.638794 2014.149170,248.156647 
	C2011.743042,242.416214 2007.092773,238.627701 2000.374756,237.445068 
	C2011.612793,237.183914 2023.075562,237.183914 2034.914795,237.183914 
	C2034.973389,238.401917 2035.073120,239.507843 2035.073242,240.613770 
	C2035.079834,409.692535 2035.079224,578.771301 2035.075562,747.850098 
	C2035.075562,748.515381 2035.025269,749.180725 2034.919922,750.283630 
z"/>
<path fill="#010102" opacity="1.000000" stroke="none" 
	d="
M2499.416748,771.050415 
	C2499.841064,794.387390 2499.805420,817.693054 2499.849609,841.458252 
	C2495.901123,830.565857 2487.517334,824.411438 2476.098145,821.728333 
	C2441.964844,813.708313 2407.875244,805.497925 2373.712646,797.605469 
	C2341.311279,790.119873 2308.854980,782.867493 2276.385254,775.684204 
	C2268.840820,774.015137 2261.142578,773.041687 2253.271973,771.446960 
	C2335.004639,771.103455 2416.980469,771.061218 2499.416748,771.050415 
z"/>
<path fill="#040609" opacity="1.000000" stroke="none" 
	d="
M500.791382,235.799225 
	C490.845917,238.259674 486.128571,244.916824 484.279907,254.967682 
	C480.495483,275.542786 478.511566,296.170197 478.582306,317.120758 
	C478.825195,389.056458 478.710663,460.993500 478.652496,532.929993 
	C478.636688,552.489136 480.830048,571.813538 483.671143,591.132446 
	C487.122559,614.601440 489.931610,638.164185 493.179596,661.664124 
	C495.615967,679.292053 498.351013,696.878540 500.852142,714.497803 
	C501.454376,718.740417 501.951050,723.037170 501.989655,727.313660 
	C502.127350,742.575195 494.694916,750.131592 479.391876,750.597229 
	C478.560089,750.622559 477.728088,750.641968 476.459625,750.704590 
	C475.929626,748.920288 475.754547,747.095520 475.754425,745.270813 
	C475.741943,577.195740 475.742859,409.120728 475.742889,241.045685 
	C475.742889,239.412918 475.742889,237.780136 475.742889,235.599762 
	C483.529633,235.599762 490.960968,235.599762 498.830139,235.771332 
	C499.414246,235.770142 499.560516,235.597366 499.706787,235.424591 
	C500.007141,235.493027 500.302185,235.579407 500.791382,235.799225 
z"/>
<path fill="#0A0B0C" opacity="1.000000" stroke="none" 
	d="
M2251.141602,770.446594 
	C2234.340088,768.659912 2217.569580,766.284973 2200.762939,764.203003 
	C2182.786133,761.976013 2164.786377,759.921326 2146.775879,757.984558 
	C2130.062500,756.187439 2113.345703,754.328674 2096.586182,753.092529 
	C2083.722656,752.143799 2070.790771,752.121521 2057.544922,751.489441 
	C2103.630371,751.244324 2150.059814,751.192017 2196.489502,751.152222 
	C2214.449219,751.136841 2232.408691,751.149719 2251.156494,751.149719 
	C2251.156494,757.521179 2251.156494,763.754211 2251.141602,770.446594 
z"/>
<path fill="#6DB3FE" opacity="1.000000" stroke="none" 
	d="
M499.692932,235.298767 
	C499.560516,235.597366 499.414246,235.770142 499.312866,235.680969 
	C499.357758,235.419037 499.426971,235.176147 499.426971,235.176147 
	C499.426971,235.176147 499.679047,235.172943 499.692932,235.298767 
z"/>
<path fill="#000000" opacity="1.000000" stroke="none" 
	d="
M1552.483154,951.482056 
	C1548.941162,969.554138 1546.525635,987.458069 1541.856079,1004.753418 
	C1534.275146,1032.832397 1525.831787,1060.717651 1516.619141,1088.306274 
	C1506.380371,1118.967407 1490.122192,1146.817505 1473.283447,1174.242676 
	C1456.564209,1201.473389 1436.828857,1226.387695 1414.074219,1248.836914 
	C1386.429077,1276.110962 1355.104980,1298.054932 1319.373657,1313.542236 
	C1307.963013,1318.488159 1296.469971,1323.295044 1285.330688,1328.804321 
	C1267.729248,1337.510010 1250.184082,1336.460693 1232.493408,1329.634399 
	C1193.795044,1314.701416 1158.774170,1293.415771 1126.859985,1267.117554 
	C1091.742798,1238.179932 1063.545898,1203.272217 1040.022339,1164.414795 
	C1020.534546,1132.223877 1005.078003,1098.194824 993.037170,1062.623413 
	C983.343079,1033.984497 975.716187,1004.756958 970.951782,974.868958 
	C967.967163,956.146118 965.108521,937.380005 963.056824,918.539185 
	C961.534851,904.562683 960.994080,890.441711 960.756775,876.372559 
	C960.483093,860.139099 960.503174,843.864624 961.352783,827.658081 
	C962.233826,810.851379 964.068237,794.084412 965.838989,777.337341 
	C967.711731,759.625977 969.526306,741.885559 972.230774,724.290771 
	C975.486694,703.108704 979.147888,681.960876 983.535706,660.986938 
	C991.621643,622.336243 1002.275208,584.339966 1014.943970,546.941467 
	C1028.440186,507.100372 1043.552979,467.866699 1061.015625,429.583130 
	C1070.864868,407.990662 1080.352051,386.163910 1091.549805,365.272064 
	C1108.133667,334.331024 1125.026001,303.455139 1143.724243,273.771851 
	C1169.567139,232.746338 1197.154419,192.817261 1224.120483,152.502899 
	C1231.943481,140.807587 1240.065308,129.305191 1248.298218,117.893372 
	C1254.340576,109.517830 1262.416260,109.947021 1269.433472,117.586098 
	C1297.419800,148.052704 1318.002686,183.787445 1340.826050,217.877640 
	C1361.451294,248.684647 1381.633057,279.886688 1400.093018,312.016174 
	C1416.690918,340.905029 1431.190918,371.046173 1445.672485,401.089874 
	C1458.260254,427.204773 1469.656860,453.899292 1481.345215,480.440979 
	C1494.634766,510.618774 1505.367920,541.734863 1514.031128,573.529968 
	C1525.427246,615.355347 1536.958374,657.157043 1547.356812,699.234375 
	C1551.330688,715.314575 1552.931519,732.070312 1554.545166,748.622314 
	C1556.582642,769.521057 1557.589111,790.522583 1558.880249,811.489624 
	C1559.081055,814.749756 1558.176392,818.065796 1558.220337,821.350098 
	C1558.383545,833.554688 1559.332397,845.779907 1558.866577,857.954529 
	C1558.158325,876.465942 1556.533691,894.942810 1555.265381,913.432068 
	C1554.405273,925.970276 1553.489014,938.504700 1552.483154,951.482056 
z"/>
<path fill="#000000" opacity="1.000000" stroke="none" 
	d="
M1665.633789,1322.624023 
	C1684.663696,1307.995728 1704.045166,1294.340942 1722.062500,1279.075928 
	C1760.890625,1246.179077 1792.554688,1206.730103 1822.342896,1165.749268 
	C1842.414551,1138.135864 1861.359375,1109.760376 1878.044678,1079.938965 
	C1893.047119,1053.125366 1906.033447,1025.374390 1917.150757,996.713989 
	C1922.780518,982.200378 1929.921265,968.252869 1935.170288,953.616089 
	C1943.995239,929.007996 1951.692261,903.997986 1960.186279,879.267822 
	C1964.859985,865.660522 1970.057129,852.226929 1975.265259,838.810913 
	C1980.379272,825.637695 1991.012939,821.592346 2004.207642,821.616577 
	C2016.004639,821.638306 2027.810181,820.778442 2039.598145,821.010193 
	C2058.336670,821.378418 2077.099365,821.823730 2095.787354,823.146606 
	C2130.327637,825.591553 2164.727295,829.329163 2198.902344,835.198486 
	C2230.385742,840.605652 2262.090820,844.726685 2293.560303,850.208496 
	C2324.345703,855.571289 2354.995850,861.744690 2385.624756,867.958496 
	C2397.653564,870.398804 2403.782471,883.624573 2397.744385,894.429443 
	C2387.887939,912.066956 2377.803467,929.621094 2366.885254,946.612854 
	C2336.977539,993.157349 2305.676270,1038.774536 2271.841064,1082.562134 
	C2254.851318,1104.549438 2237.025146,1125.919189 2218.943604,1147.025024 
	C2203.195801,1165.406860 2186.865723,1183.317139 2170.228516,1200.901733 
	C2152.948975,1219.165161 2135.385742,1237.197998 2117.240967,1254.595947 
	C2088.164551,1282.475342 2056.200439,1306.933472 2023.959961,1330.995361 
	C2004.063721,1345.844604 1984.503540,1361.233398 1963.825684,1374.919189 
	C1946.174316,1386.601929 1927.350220,1396.585449 1908.666260,1406.615112 
	C1889.502686,1416.902344 1870.005127,1426.592529 1850.429565,1436.081421 
	C1815.972534,1452.783936 1780.128784,1466.070557 1743.234497,1476.090088 
	C1720.559937,1482.247681 1697.320190,1486.445068 1674.191772,1490.758057 
	C1663.369507,1492.776123 1652.229004,1493.354004 1641.198486,1493.924927 
	C1625.289795,1494.748291 1609.343384,1494.826416 1593.429077,1495.567139 
	C1590.071411,1495.723267 1586.737305,1498.311768 1583.471558,1498.153076 
	C1573.260864,1497.656372 1563.052246,1496.658691 1552.907593,1495.352539 
	C1529.877075,1492.387329 1506.808350,1489.592163 1483.898682,1485.849976 
	C1459.514404,1481.866943 1436.015625,1474.648315 1413.637573,1463.926880 
	C1401.832520,1458.271118 1389.770264,1453.152954 1377.848389,1447.738647 
	C1376.197021,1446.988647 1374.596558,1446.053833 1373.126953,1444.990967 
	C1369.972290,1442.708984 1367.531860,1439.313477 1368.995850,1435.741455 
	C1370.047729,1433.174927 1373.320435,1430.307129 1375.998291,1429.839111 
	C1385.069336,1428.254150 1394.299072,1427.441528 1403.499756,1426.761108 
	C1427.244019,1425.005127 1450.522217,1420.633911 1473.612549,1414.998291 
	C1498.834229,1408.842285 1523.743286,1401.724854 1547.942505,1392.225098 
	C1571.214233,1383.089600 1592.622925,1370.496826 1613.538208,1357.021240 
	C1630.929810,1345.815796 1648.099365,1334.265259 1665.633789,1322.624023 
z"/>
<path fill="#000000" opacity="1.000000" stroke="none" 
	d="
M629.897217,1089.105835 
	C651.607971,1128.938477 676.645630,1166.142090 704.903381,1201.099731 
	C717.708191,1216.940430 731.566223,1231.962524 745.425903,1246.911499 
	C781.372192,1285.682739 822.236633,1318.556274 867.819214,1345.222778 
	C896.553833,1362.032715 925.949768,1377.802124 955.671570,1392.805298 
	C977.596802,1403.872803 1001.547485,1409.539429 1025.755493,1413.506958 
	C1054.839233,1418.273560 1083.985840,1422.656006 1113.088501,1427.309326 
	C1119.890869,1428.397095 1126.977661,1428.996704 1132.429932,1435.077393 
	C1129.735474,1439.916748 1128.000122,1445.129639 1121.572998,1447.818359 
	C1104.910400,1454.789185 1089.010010,1463.752441 1072.045532,1469.783081 
	C1055.043945,1475.827026 1037.287842,1480.103760 1019.563721,1483.671265 
	C996.984131,1488.215942 974.148499,1491.573364 951.341064,1494.875610 
	C931.551331,1497.740967 911.626404,1499.380615 891.583984,1497.773926 
	C846.487366,1494.159058 801.897156,1487.839722 758.546875,1474.198853 
	C736.500549,1467.261841 714.131409,1461.356934 692.025574,1454.601685 
	C665.581238,1446.520264 640.914734,1434.321899 616.605347,1421.313721 
	C575.394470,1399.261719 534.012390,1377.468262 497.206451,1348.276367 
	C475.953949,1331.420532 455.025269,1314.149048 434.175629,1296.794678 
	C414.587280,1280.490112 394.719910,1264.451660 376.028809,1247.157471 
	C356.281769,1228.886108 337.496643,1209.541748 318.829407,1190.148315 
	C305.494171,1176.294067 292.575928,1161.974854 280.319550,1147.161499 
	C263.973633,1127.405396 247.838715,1107.415161 232.728531,1086.711548 
	C213.889267,1060.898560 195.963486,1034.406982 178.047882,1007.934692 
	C155.114227,974.047607 132.511383,939.935425 109.967171,905.787476 
	C106.998360,901.290588 104.698364,896.181091 103.003838,891.052856 
	C100.269417,882.777344 104.237320,873.975464 112.529465,871.397583 
	C124.141975,867.787476 136.018967,864.851440 147.952972,862.484985 
	C185.079636,855.122925 222.201141,847.670898 259.493591,841.232178 
	C282.687378,837.227722 306.159821,834.760864 329.558105,832.041809 
	C347.581909,829.947205 365.691498,828.599976 383.751129,826.802124 
	C405.575592,824.629700 427.375549,822.201416 449.214569,820.192688 
	C453.929901,819.758972 458.763123,820.776001 463.547699,820.892944 
	C476.841644,821.217834 490.140930,821.700806 503.433685,821.589966 
	C515.800354,821.486755 522.974304,826.765198 526.561707,838.763062 
	C542.515930,892.121521 561.923950,944.267761 584.579407,995.124878 
	C597.871399,1024.962769 612.650696,1054.138306 626.787964,1083.598755 
	C627.644592,1085.383911 628.739685,1087.054565 629.897217,1089.105835 
z"/>
<path fill="#000000" opacity="1.000000" stroke="none" 
	d="
M933.551331,583.549683 
	C927.160095,608.574951 920.131531,633.051575 914.906433,657.907349 
	C910.705627,677.890259 908.528992,698.310242 905.747620,718.576599 
	C903.057312,738.178955 900.713013,757.829102 898.277954,777.465942 
	C897.444946,784.183594 896.693665,790.914917 896.087463,797.656433 
	C894.987915,809.883118 887.453064,815.226074 875.700378,812.002991 
	C842.599243,802.925293 809.623047,793.350098 776.345215,784.973877 
	C755.295044,779.675415 733.857178,775.815918 712.475769,771.962463 
	C690.287354,767.963501 667.984680,764.566162 645.680176,761.254333 
	C629.552856,758.859680 613.340881,757.034729 597.166382,754.958374 
	C597.002197,754.937256 596.833252,754.957397 596.666931,754.949280 
	C583.104187,754.284363 575.685974,747.883972 573.251404,733.821777 
	C568.193726,704.607666 561.402771,675.694702 556.275391,646.491028 
	C553.913391,633.038147 553.581604,619.205811 552.697266,605.521790 
	C551.287720,583.711121 550.125244,561.883789 548.977051,540.057251 
	C548.323975,527.644470 547.840393,515.221680 547.400513,502.799072 
	C546.860291,487.539185 546.227417,472.277771 546.021667,457.011810 
	C545.600220,425.728363 545.319763,394.441681 545.251892,363.155762 
	C545.235474,355.586151 546.116150,347.998871 546.861450,340.447083 
	C547.942200,329.496765 556.289246,323.831543 566.591492,327.682983 
	C600.508545,340.362854 634.498840,352.885468 668.086548,366.399139 
	C719.199097,386.963745 769.117188,410.262482 817.861267,435.916626 
	C840.256653,447.703400 861.788940,461.169312 883.428467,474.340668 
	C901.396179,485.277100 918.941345,496.907257 936.687134,508.208923 
	C942.887756,512.157898 948.672729,516.853882 948.676636,524.731384 
	C948.679443,530.206238 946.882874,535.752747 945.432251,541.143982 
	C941.653625,555.187134 937.622925,569.162415 933.551331,583.549683 
z"/>
<path fill="#000000" opacity="1.000000" stroke="none" 
	d="
M1606.770508,666.106079 
	C1601.529907,631.187866 1594.046753,597.229431 1582.890015,564.160095 
	C1579.933716,555.397217 1576.416382,546.789795 1572.625854,538.349243 
	C1564.556396,520.380249 1570.432251,502.381744 1587.059814,492.312378 
	C1608.741455,479.182343 1630.266602,465.745941 1652.428101,453.468262 
	C1679.711914,438.352814 1707.263794,423.643768 1735.288208,409.964844 
	C1762.820190,396.526276 1791.013184,384.424927 1819.059692,372.062714 
	C1841.321289,362.250397 1863.622314,352.480713 1886.245117,343.551697 
	C1900.980713,337.735748 1916.146729,332.801025 1931.446411,328.684723 
	C1945.985352,324.773102 1956.934082,333.478973 1957.346558,348.561951 
	C1957.777710,364.324738 1957.275391,380.110931 1957.513062,395.881927 
	C1957.650269,404.981628 1958.690186,414.066833 1958.861816,423.167236 
	C1958.993042,430.114471 1958.450195,437.077942 1958.113281,444.029602 
	C1957.744141,451.645935 1957.224487,459.254913 1956.846924,466.870880 
	C1956.075684,482.422363 1955.437744,497.980835 1954.595215,513.528259 
	C1953.448486,534.685730 1952.379517,555.851196 1950.871094,576.984192 
	C1949.471191,596.595215 1948.152100,616.245789 1945.686646,635.738464 
	C1942.460938,661.242554 1938.174561,686.613281 1934.273804,712.030579 
	C1933.349609,718.052429 1932.409546,724.093872 1931.009155,730.015747 
	C1928.644409,740.015442 1922.393677,747.202698 1912.528809,749.657959 
	C1897.377686,753.428955 1882.032104,756.593323 1866.620605,759.104858 
	C1836.397705,764.030090 1805.851074,767.215881 1775.849121,773.185120 
	C1743.070923,779.706665 1710.807007,788.778625 1678.216309,796.294128 
	C1665.554565,799.213989 1652.671143,801.389465 1639.775513,802.994568 
	C1632.326050,803.921814 1627.047974,799.773376 1625.057739,792.366089 
	C1623.440552,786.346985 1622.822510,780.034973 1622.055054,773.816589 
	C1619.708740,754.805542 1617.818726,735.732849 1615.150879,716.768616 
	C1612.787231,699.968018 1609.619751,683.280518 1606.770508,666.106079 
z"/>
<path fill="#000001" opacity="1.000000" stroke="none" 
	d="
M1049.137207,1284.843262 
	C1068.764893,1304.470825 1088.833862,1323.069824 1110.531738,1339.866821 
	C1113.638062,1342.271484 1116.374023,1345.226196 1118.962891,1348.203247 
	C1120.727051,1350.231812 1122.752075,1352.358521 1120.963135,1355.696045 
	C1119.101440,1359.169678 1116.434082,1361.017334 1112.612061,1360.761230 
	C1106.368286,1360.342896 1100.139160,1359.684937 1093.911255,1359.053345 
	C1068.289551,1356.455200 1043.015015,1352.065674 1018.276550,1344.738770 
	C990.676331,1336.564331 964.341125,1325.405518 939.071106,1311.679321 
	C912.946167,1297.489014 888.705322,1280.469360 865.823608,1261.597412 
	C849.344849,1248.006348 833.520386,1233.615723 817.542297,1219.426147 
	C808.116089,1211.054932 798.706543,1202.636841 789.731689,1193.791260 
	C768.084778,1172.455811 749.265503,1148.720459 732.067383,1123.725220 
	C704.977783,1084.354004 679.919556,1043.729858 659.054993,1000.677917 
	C642.580139,966.683716 627.596252,932.019165 615.269714,896.276489 
	C609.931824,880.798401 605.123901,865.137451 600.081116,849.557678 
	C595.813538,836.372925 602.320496,827.695557 614.195557,828.018066 
	C618.288635,828.129211 622.406067,827.233826 626.516602,826.842163 
	C632.581482,826.264282 638.672363,825.122437 644.710632,825.345459 
	C650.400085,825.555542 656.038025,827.208984 661.694763,828.248596 
	C685.157715,832.561035 708.615173,836.903198 732.082214,841.193298 
	C766.335449,847.455444 800.303528,854.788208 833.175537,866.604919 
	C843.258789,870.229614 853.917847,872.331055 863.838501,876.312683 
	C884.188904,884.480164 895.705627,899.191406 898.407715,921.752991 
	C903.960388,968.116089 910.560608,1014.372070 923.991333,1059.298950 
	C932.070740,1086.324951 941.922913,1112.737671 954.157471,1138.130737 
	C966.611206,1163.978760 979.561096,1189.620972 993.285828,1214.812744 
	C1003.442749,1233.456055 1016.930603,1249.920898 1031.315308,1265.559326 
	C1037.161133,1271.914551 1043.030151,1278.248657 1049.137207,1284.843262 
z"/>
<path fill="#000001" opacity="1.000000" stroke="none" 
	d="
M1750.676270,1149.693848 
	C1740.097290,1162.246094 1730.247681,1174.994263 1719.253174,1186.663940 
	C1705.931885,1200.803345 1692.114136,1214.554810 1677.677612,1227.547852 
	C1644.489624,1257.417603 1608.847046,1284.038208 1569.955811,1306.165771 
	C1548.597168,1318.317871 1526.844482,1329.533936 1503.528320,1337.607910 
	C1482.091064,1345.031372 1460.052979,1349.658691 1437.739990,1353.286133 
	C1431.404541,1354.316040 1425.009155,1355.229858 1418.829102,1356.893799 
	C1412.221191,1358.672974 1406.627075,1356.748779 1399.965088,1353.644409 
	C1403.202148,1349.427124 1405.640259,1345.252075 1409.003906,1342.048828 
	C1420.893433,1330.726440 1433.077759,1319.713135 1445.193726,1308.629761 
	C1452.901001,1301.579224 1461.051392,1294.973389 1468.369385,1287.544067 
	C1498.058350,1257.403809 1523.767944,1224.205322 1544.047729,1186.970581 
	C1570.624146,1138.175171 1591.189209,1086.932129 1604.872437,1033.094238 
	C1609.734131,1013.964783 1613.036743,994.369995 1615.887573,974.817932 
	C1618.695068,955.564453 1619.816895,936.071472 1622.072144,916.729492 
	C1624.039062,899.860291 1629.990967,884.975220 1644.984985,875.149231 
	C1654.380981,868.991821 1665.260376,867.358276 1675.858765,864.938293 
	C1705.717651,858.120667 1735.596680,851.390259 1765.491455,844.731384 
	C1791.199219,839.005127 1816.809082,832.686523 1842.723633,828.109070 
	C1854.647583,826.002869 1867.196167,827.354004 1879.462036,827.307861 
	C1883.423462,827.292908 1887.412476,827.625793 1891.344238,828.140442 
	C1900.922485,829.393982 1904.869995,835.938477 1901.683960,845.270508 
	C1897.512939,857.487671 1893.273560,869.682556 1888.940674,881.843201 
	C1881.552246,902.579895 1874.215088,923.336670 1866.593628,943.988037 
	C1851.330933,985.344727 1830.486206,1023.941589 1808.498535,1062.026978 
	C1791.508911,1091.455322 1773.590576,1120.210205 1752.880249,1147.175537 
	C1752.275024,1147.963623 1751.561401,1148.668457 1750.676270,1149.693848 
z"/>
<path fill="#000000" opacity="1.000000" stroke="none" 
	d="
M2250.649658,1218.984741 
	C2251.027344,1220.048584 2251.125977,1221.210815 2251.125977,1222.373047 
	C2251.133057,1313.820312 2251.131836,1405.267456 2251.131592,1496.714722 
	C2251.131592,1498.023926 2251.131836,1499.333130 2251.131836,1501.243286 
	C2125.856689,1501.243286 2000.842163,1501.243286 1875.350464,1501.296387 
	C1881.298950,1498.120361 1887.758179,1494.956543 1894.144043,1491.651123 
	C1919.778442,1478.382690 1945.756348,1465.723877 1970.921753,1451.617188 
	C2006.350098,1431.757446 2039.879517,1408.853394 2071.781250,1383.716309 
	C2091.006592,1368.567627 2109.797119,1352.825439 2128.190674,1336.675781 
	C2142.902588,1323.758911 2156.829834,1309.937134 2170.913086,1296.317871 
	C2197.457031,1270.648804 2223.861816,1244.836182 2250.649658,1218.984741 
z"/>
<path fill="#000001" opacity="1.000000" stroke="none" 
	d="
M2499.661865,851.640808 
	C2499.911621,898.638672 2499.985840,945.918152 2499.993408,993.197693 
	C2500.005371,1067.791138 2499.972412,1142.384644 2499.902344,1217.437256 
	C2417.574219,1217.898438 2335.302002,1217.900635 2252.566406,1217.857056 
	C2257.230713,1211.559204 2262.442383,1205.373535 2267.471191,1199.042847 
	C2283.197998,1179.243530 2299.091064,1159.569702 2314.481445,1139.510986 
	C2333.686523,1114.480591 2352.599121,1089.221802 2371.375732,1063.867554 
	C2394.447510,1032.713623 2414.256836,999.440430 2434.153564,966.229492 
	C2453.877930,933.305603 2473.825195,900.514648 2493.402100,867.503601 
	C2496.206055,862.775818 2497.476318,857.138733 2499.661865,851.640808 
z"/>
<path fill="#030404" opacity="1.000000" stroke="none" 
	d="
M748.882324,1543.564575 
	C707.274231,1543.844482 665.408386,1543.844482 622.945068,1543.844482 
	C622.945068,1530.104126 622.945068,1516.543457 623.001099,1502.520020 
	C642.141296,1509.365234 660.986694,1517.398071 680.374573,1523.783691 
	C701.120850,1530.616821 722.378113,1535.898560 743.413269,1541.854004 
	C745.146484,1542.344482 746.887268,1542.808350 748.882324,1543.564575 
z"/>
</svg>