<svg version="1.1" id="Layer_1" xmlns="http://www.w3.org/2000/svg" xmlns:xlink="http://www.w3.org/1999/xlink" x="0px" y="0px" width="100%" viewBox="0 0 225 225" enable-background="new 0 0 225 225" xml:space="preserve">

<path fill="#72B5FF" opacity="1.000000" stroke="none" d="
M226.000000,84.625000 
	C219.038025,95.899246 212.797684,107.353561 204.942551,117.565796 
	C193.560333,132.363434 179.785294,144.786072 161.439346,150.525696 
	C145.275818,155.582535 129.684784,155.110657 115.821747,143.649460 
	C114.884003,142.874176 112.418434,142.542938 111.638718,143.186615 
	C93.896942,157.832855 74.979965,155.604675 55.953739,146.760086 
	C42.567120,140.537109 31.961506,130.368042 23.206696,118.789322 
	C15.223864,108.231575 8.738460,96.541611 1.296529,85.175339 
	C1.000000,84.250000 1.000000,83.500000 1.360398,82.295746 
	C14.709045,79.302124 27.640085,76.380890 40.715305,74.422073 
	C45.558720,73.696487 46.073357,72.238586 45.775524,67.847733 
	C44.877640,54.610306 44.567345,41.331135 44.146370,28.064487 
	C44.032169,24.465555 45.836597,23.197979 49.266068,24.762560 
	C59.077877,29.238871 68.938599,33.612206 78.677170,38.242496 
	C82.055679,39.848843 85.132477,42.089767 87.678154,43.634846 
	C96.282318,29.147854 104.641159,15.073928 113.000000,1.000001 
	C113.444443,1.000000 113.888893,1.000000 114.812485,1.300839 
	C123.716255,15.210260 132.140884,28.818844 140.770279,42.758205 
	C142.024048,42.042095 143.818161,40.863998 145.737000,39.946835 
	C156.354645,34.871830 166.996094,29.846392 177.644669,24.836487 
	C180.488022,23.498758 182.759766,23.868660 182.738617,27.553623 
	C182.677643,38.177124 182.530807,48.802925 182.194778,59.420773 
	C182.046082,64.119766 181.360245,68.801773 180.926056,73.408653 
	C189.136383,74.372620 196.606552,74.820610 203.892578,76.224365 
	C211.355606,77.662216 218.638351,80.035919 226.000000,82.000000 
	C226.000000,82.750000 226.000000,83.500000 226.000000,84.625000 
M97.474297,40.085339 
	C92.009537,53.217133 88.241478,66.733345 87.621773,81.054985 
	C86.952026,96.533096 89.535622,111.346779 100.660538,122.609970 
	C111.594116,133.679443 115.417870,133.855606 127.105896,123.625114 
	C128.711121,122.220062 130.057068,120.459663 131.294449,118.702774 
	C141.540283,104.155190 142.771423,87.606110 140.371887,70.893257 
	C137.420471,50.336430 128.633026,31.866980 116.960670,14.775208 
	C116.255051,13.741979 115.270798,12.899040 113.497948,10.966702 
	C108.022171,20.905224 102.924774,30.156981 97.474297,40.085339 
M208.367599,83.983238 
	C200.461197,82.984009 192.544159,82.060593 184.652542,80.955772 
	C180.244995,80.338722 178.558563,82.565819 177.250778,86.420784 
	C174.746613,93.802216 172.400116,101.378029 168.726990,108.193451 
	C160.396530,123.650421 148.740860,135.581497 130.734695,139.532562 
	C128.609634,139.998856 126.442154,140.271896 123.102951,140.835663 
	C131.758331,146.224319 139.931335,147.546936 148.572311,146.662567 
	C160.917847,145.399063 171.401733,139.804031 181.068481,132.430756 
	C194.668289,122.057579 204.706650,108.638420 213.456314,94.158165 
	C218.232162,86.254387 218.170563,86.217163 208.367599,83.983238 
M13.978785,94.478592 
	C21.295380,106.831207 29.628284,118.322418 40.440525,127.975632 
	C51.110065,137.501450 63.025883,144.230179 77.236252,146.634369 
	C85.894035,148.099136 97.780975,145.410217 102.244095,140.889374 
	C102.139725,140.767822 102.057297,140.578217 101.927254,140.536316 
	C101.303841,140.335342 100.676903,140.073853 100.034447,140.014023 
	C87.232971,138.821960 77.261765,132.330154 68.716461,123.234360 
	C58.768372,112.645439 53.557732,99.507904 49.345646,85.971222 
	C48.190056,82.257416 46.698963,80.488274 42.853985,80.972580 
	C35.288696,81.925491 27.702230,82.735466 20.164305,83.869080 
	C16.702353,84.389725 13.334346,85.535049 9.359365,86.539742 
	C11.115344,89.606155 12.338959,91.742920 13.978785,94.478592 
M50.042679,35.055008 
	C50.700680,46.647137 51.358692,58.239269 52.016670,69.831398 
	C52.192497,72.929100 53.687256,74.455307 56.897675,75.019073 
	C63.749630,76.222305 70.597031,77.591400 77.306564,79.408485 
	C80.823097,80.360840 81.568024,79.371140 82.021400,76.113556 
	C82.979187,69.231613 84.236397,62.377979 85.716621,55.588135 
	C86.387550,52.510597 85.876785,50.443649 83.057220,48.955463 
	C73.526909,43.925312 64.054214,38.783733 54.455986,33.887669 
	C53.368092,33.332729 51.623497,34.065182 50.042679,35.055008 
M156.798645,77.257965 
	C161.207092,76.453941 165.697342,75.936684 169.986130,74.713211 
	C171.858963,74.178947 174.621674,72.321587 174.760147,70.855400 
	C175.836548,59.458351 176.407272,48.012161 177.050125,36.576431 
	C177.231277,33.354279 175.606644,32.161201 172.682266,33.679062 
	C163.257751,38.570728 153.851639,43.502613 144.556900,48.633614 
	C143.408218,49.267727 142.125458,51.360638 142.344711,52.500599 
	C144.027191,61.247730 146.065979,69.926323 148.137085,79.271278 
	C150.608551,78.726974 153.307724,78.132523 156.798645,77.257965 
M76.556183,121.958504 
	C85.922195,130.593124 94.569023,134.267593 100.772697,132.242889 
	C100.684128,131.935547 100.695030,131.515457 100.492752,131.336990 
	C88.421745,120.686462 83.386902,106.801201 81.859627,91.236046 
	C81.727234,89.886742 80.970474,87.978157 79.928719,87.437683 
	C72.215797,83.436073 64.018387,81.513748 54.359886,82.049416 
	C58.906448,97.369095 64.697830,110.905174 76.556183,121.958504 
M154.031265,118.514061 
	C163.411423,108.192245 168.667084,95.864037 172.223145,82.087456 
	C163.778702,81.227722 156.583069,83.900108 149.452881,86.372437 
	C148.177795,86.814560 147.436676,89.516418 146.922699,91.310585 
	C144.559708,99.559357 143.231339,108.234718 139.833511,116.015388 
	C137.144516,122.172920 131.989395,127.253502 128.040848,132.659729 
	C135.317673,133.289246 143.354111,129.076660 154.031265,118.514061 
z" data-index="1" style="visibility: visible; opacity: 1;"></path>

<path fill="#FEFFFF" opacity="1.000000" stroke="none" d="
M226.000000,81.531342 
	C218.638351,80.035919 211.355606,77.662216 203.892578,76.224365 
	C196.606552,74.820610 189.136383,74.372620 180.926056,73.408653 
	C181.360245,68.801773 182.046082,64.119766 182.194778,59.420773 
	C182.530807,48.802925 182.677643,38.177124 182.738617,27.553623 
	C182.759766,23.868660 180.488022,23.498758 177.644669,24.836487 
	C166.996094,29.846392 156.354645,34.871830 145.737000,39.946835 
	C143.818161,40.863998 142.024048,42.042095 140.770279,42.758205 
	C132.140884,28.818844 123.716255,15.210260 115.145813,1.300839 
	C151.915512,1.000000 188.831009,1.000000 226.000000,1.000000 
	C226.000000,27.687027 226.000000,54.374855 226.000000,81.531342 
z" data-index="3" style="visibility: hidden; opacity: 1;"></path>

<path fill="#78B8FF" opacity="1.000000" stroke="none" d="
M56.416664,226.000000 
	C51.657597,222.902634 47.281559,219.905212 47.050636,213.724442 
	C46.812286,207.345139 50.843231,201.358978 56.476151,200.119904 
	C62.311005,198.836426 67.610603,201.743408 70.103317,207.594788 
	C72.537949,213.309860 70.256744,220.718994 65.025230,223.837280 
	C63.896496,224.510056 62.596848,224.896088 61.187965,225.707108 
	C59.611111,226.000000 58.222221,226.000000 56.416664,226.000000 
M51.260624,209.328598 
	C50.114605,217.841537 54.186581,223.151413 60.728336,221.714493 
	C65.402626,220.687775 67.420715,217.248413 67.548340,213.040085 
	C67.675819,208.836365 65.797760,205.226288 61.336754,203.857056 
	C56.700706,202.434113 53.718094,204.700363 51.260624,209.328598 
z" data-index="5" style="visibility: hidden; opacity: 1;"></path>

<path fill="#79B9FF" opacity="1.000000" stroke="none" d="
M95.375000,226.000000 
	C89.111931,223.068314 87.506714,218.094574 88.047264,211.921661 
	C88.307549,208.949265 87.912468,205.917984 88.196777,202.950012 
	C88.286896,202.009262 89.614594,201.187057 90.375946,200.310608 
	C90.895889,201.204422 91.826424,202.080994 91.864769,202.995010 
	C92.032059,206.981796 91.993752,210.980362 91.925980,214.972885 
	C91.867363,218.426712 92.427437,221.715515 96.615829,221.810196 
	C101.099716,221.911545 101.766830,218.382004 101.827080,214.830978 
	C101.894814,210.838409 101.798958,206.842728 101.893036,202.851212 
	C101.913208,201.995529 102.442619,201.151855 102.707970,200.387497 
	C103.430412,200.448334 104.031242,200.476898 104.031097,200.502014 
	C103.991096,207.445190 104.225136,214.417572 103.583061,221.308197 
	C103.441498,222.827393 100.190445,224.056839 98.185631,225.709854 
	C97.250000,226.000000 96.500000,226.000000 95.375000,226.000000 
z" data-index="7" style="visibility: hidden; opacity: 1;"></path>

<path fill="#74B7FF" opacity="1.000000" stroke="none" d="
M190.399994,226.000000 
	C188.730743,224.299484 187.317093,222.681229 186.274643,220.851501 
	C185.933868,220.253372 186.558884,219.105011 186.742218,218.208282 
	C187.553131,218.519470 188.393555,218.770981 189.168823,219.154282 
	C190.774719,219.948257 192.300674,221.287567 193.950790,221.444778 
	C194.762222,221.522079 196.726959,219.188873 196.506729,218.427689 
	C196.013626,216.723434 194.672958,215.110077 193.312592,213.855286 
	C192.002594,212.646942 189.651184,212.293533 188.808197,210.919693 
	C187.653381,209.037628 186.371887,205.937973 187.173752,204.464142 
	C188.285721,202.420349 191.152267,200.590149 193.514725,200.211853 
	C195.274277,199.930099 197.425690,202.095612 199.402588,203.171204 
	C199.093124,203.790039 198.783676,204.408875 198.474228,205.027710 
	C197.028046,204.615112 195.565445,203.834763 194.140533,203.898392 
	C192.843109,203.956329 191.586594,204.930511 190.312042,205.500793 
	C190.853668,206.574982 191.204193,207.827347 191.991852,208.672150 
	C192.746445,209.481491 193.924133,209.932663 194.969604,210.427750 
	C198.238052,211.975418 200.302521,214.201462 200.069000,218.136688 
	C199.842026,221.961517 197.859894,224.233627 194.183640,225.704681 
	C192.933334,226.000000 191.866653,226.000000 190.399994,226.000000 
z" data-index="9" style="visibility: hidden; opacity: 1;"></path>

<path fill="#78B8FF" opacity="1.000000" stroke="none" d="
M34.100281,178.974304 
	C34.035343,182.904236 33.970329,186.342331 33.905315,189.780411 
	C33.152958,189.797729 32.400600,189.815033 31.648245,189.832352 
	C31.399012,188.094299 30.961456,186.359253 30.933802,184.617676 
	C30.825809,177.816467 30.873795,177.809174 24.000933,178.063126 
	C23.201336,178.092667 22.406210,178.243225 20.975492,178.412720 
	C20.975492,181.498123 21.114450,184.454987 20.886992,187.383377 
	C20.822542,188.213135 19.688787,188.959839 19.045437,189.744629 
	C18.430338,188.937408 17.299156,188.141205 17.281649,187.321228 
	C17.139496,180.663773 17.140648,174.000320 17.297953,167.343414 
	C17.316055,166.577377 18.558798,165.840256 19.233738,165.089737 
	C19.816412,165.927795 20.782080,166.714493 20.902727,167.614487 
	C21.160805,169.539688 20.981764,171.523483 20.981764,173.844849 
	C24.387377,173.844849 27.284130,173.844849 30.939754,173.844849 
	C30.939754,171.491302 30.845064,169.218781 31.001045,166.963608 
	C31.044340,166.337662 31.831228,165.763138 32.276962,165.165009 
	C32.873367,165.774384 33.957565,166.361755 33.986195,166.996719 
	C34.158554,170.819244 34.088867,174.652664 34.100281,178.974304 
z" data-index="11" style="visibility: hidden; opacity: 1;"></path>

<path fill="#79B9FF" opacity="1.000000" stroke="none" d="
M76.083397,181.051437 
	C78.569344,175.273438 80.907837,169.846848 83.781258,163.178879 
	C87.636612,172.502350 91.008896,180.657608 94.644135,189.448776 
	C88.957977,190.266586 89.481102,182.847290 83.616455,183.364441 
	C78.279556,183.835052 77.817848,189.185165 72.263023,190.613327 
	C73.832733,186.677002 74.884331,184.039932 76.083397,181.051437 
M81.168365,177.966064 
	C82.744919,178.820679 84.321465,179.675278 85.898010,180.529892 
	C86.207596,180.080139 86.517181,179.630386 86.826767,179.180634 
	C85.922913,177.171341 85.019051,175.162048 83.794861,172.440643 
	C82.717171,174.624619 82.070343,175.935440 81.168365,177.966064 
z" data-index="13" style="visibility: hidden; opacity: 1;"></path>

<path fill="#78B8FF" opacity="1.000000" stroke="none" d="
M59.953613,188.473343 
	C57.430046,190.709091 57.007957,189.056168 56.994175,187.137222 
	C56.943047,180.019196 56.973808,172.900589 56.973808,165.550797 
	C61.480896,164.758453 65.649132,163.859100 68.461594,168.164017 
	C70.956070,171.982193 69.860512,175.300507 66.685883,178.386429 
	C66.062950,178.991959 66.352051,181.127594 66.896935,182.220200 
	C68.055748,184.543854 69.659119,186.645813 71.197227,189.019104 
	C68.706047,189.321075 68.706047,189.321075 60.060154,179.543274 
	C60.060154,183.069534 60.060154,185.570816 59.953613,188.473343 
M60.097046,171.713867 
	C61.005260,173.155045 61.913475,174.596222 62.821693,176.037430 
	C63.885017,175.145279 65.925392,174.101852 65.815384,173.391373 
	C65.558647,171.733246 64.268341,170.235168 63.396683,168.672256 
	C62.299702,169.422623 61.202721,170.173004 60.097046,171.713867 
z" data-index="15" style="visibility: hidden; opacity: 1;"></path>

<path fill="#74B7FF" opacity="1.000000" stroke="none" d="
M51.791828,175.203827 
	C50.976582,176.381729 50.106678,177.597687 49.019402,177.840607 
	C47.319859,178.220276 45.473148,177.941193 43.397057,177.941193 
	C43.397057,180.745163 43.397057,182.991318 43.397057,186.023483 
	C45.422844,186.023483 47.379948,185.803726 49.249985,186.112045 
	C50.252174,186.277267 51.104553,187.351151 52.024536,188.014999 
	C51.042706,188.627838 50.099648,189.678116 49.071583,189.769226 
	C46.293762,190.015396 43.479774,189.853516 40.252846,189.853516 
	C40.252846,181.556580 40.252846,173.681351 40.252846,165.820206 
	C44.178856,165.820206 48.092979,165.820206 52.514332,165.820206 
	C50.357742,170.427490 41.036198,164.497208 43.541382,173.631744 
	C46.210812,174.018707 48.925262,174.412201 51.791828,175.203827 
z" data-index="17" style="visibility: hidden; opacity: 1;"></path>

<path fill="#78B8FF" opacity="1.000000" stroke="none" d="
M186.555450,189.056625 
	C183.162460,190.234436 183.108246,188.122421 183.103745,186.007187 
	C183.091736,180.359482 183.099655,174.711731 183.099655,168.904755 
	C181.254852,168.323761 179.642990,167.816116 177.895325,167.265701 
	C180.421341,164.271240 188.560135,164.064590 192.403595,167.018951 
	C190.505569,167.684219 188.953568,168.228210 186.800858,168.982742 
	C186.800858,175.470337 186.800858,182.094009 186.555450,189.056625 
z" data-index="19" style="visibility: hidden; opacity: 1;"></path>

<path fill="#80BCFF" opacity="1.000000" stroke="none" d="
M82.606995,225.084274 
	C74.216202,225.032150 75.154922,225.830765 75.107063,217.801895 
	C75.079430,213.165817 74.952202,208.521484 75.196487,203.898132 
	C75.267799,202.548431 76.463005,201.258133 77.143051,199.940598 
	C77.757324,200.158218 78.371597,200.375839 78.985870,200.593460 
	C78.985870,207.291840 78.985870,213.990234 78.985870,219.977386 
	C81.712830,221.201385 83.667549,222.078766 85.622269,222.956146 
	C84.761894,223.664917 83.901520,224.373703 82.606995,225.084274 
z" data-index="21" style="visibility: hidden; opacity: 1;"></path>

<path fill="#FEFEFF" opacity="1.000000" stroke="none" d="
M97.650841,39.747040 
	C102.924774,30.156981 108.022171,20.905224 113.497948,10.966702 
	C115.270798,12.899040 116.255051,13.741979 116.960670,14.775208 
	C128.633026,31.866980 137.420471,50.336430 140.371887,70.893257 
	C142.771423,87.606110 141.540283,104.155190 131.294449,118.702774 
	C130.057068,120.459663 128.711121,122.220062 127.105896,123.625114 
	C115.417870,133.855606 111.594116,133.679443 100.660538,122.609970 
	C89.535622,111.346779 86.952026,96.533096 87.621773,81.054985 
	C88.241478,66.733345 92.009537,53.217133 97.650841,39.747040 
z" data-index="23" style="visibility: hidden; opacity: 1;"></path>

<path fill="#FDFEFF" opacity="1.000000" stroke="none" d="
M13.770679,94.179138 
	C12.338959,91.742920 11.115344,89.606155 9.359365,86.539742 
	C13.334346,85.535049 16.702353,84.389725 20.164305,83.869080 
	C27.702230,82.735466 35.288696,81.925491 42.853985,80.972580 
	C46.698963,80.488274 48.190056,82.257416 49.345646,85.971222 
	C53.557732,99.507904 58.768372,112.645439 68.716461,123.234360 
	C77.261765,132.330154 87.232971,138.821960 100.034447,140.014023 
	C100.676903,140.073853 101.303841,140.335342 101.927254,140.536316 
	C102.057297,140.578217 102.139725,140.767822 102.244095,140.889374 
	C97.780975,145.410217 85.894035,148.099136 77.236252,146.634369 
	C63.025883,144.230179 51.110065,137.501450 40.440525,127.975632 
	C29.628284,118.322418 21.295380,106.831207 13.770679,94.179138 
z" data-index="25" style="visibility: hidden; opacity: 1;"></path>

<path fill="#FDFEFF" opacity="1.000000" stroke="none" d="
M156.402771,77.398026 
	C153.307724,78.132523 150.608551,78.726974 148.137085,79.271278 
	C146.065979,69.926323 144.027191,61.247730 142.344711,52.500599 
	C142.125458,51.360638 143.408218,49.267727 144.556900,48.633614 
	C153.851639,43.502613 163.257751,38.570728 172.682266,33.679062 
	C175.606644,32.161201 177.231277,33.354279 177.050125,36.576431 
	C176.407272,48.012161 175.836548,59.458351 174.760147,70.855400 
	C174.621674,72.321587 171.858963,74.178947 169.986130,74.713211 
	C165.697342,75.936684 161.207092,76.453941 156.402771,77.398026 
z" data-index="27" style="visibility: hidden; opacity: 1;"></path>

<path fill="#FCFDFF" opacity="1.000000" stroke="none" d="
M153.799347,118.781952 
	C143.354111,129.076660 135.317673,133.289246 128.040848,132.659729 
	C131.989395,127.253502 137.144516,122.172920 139.833511,116.015388 
	C143.231339,108.234718 144.559708,99.559357 146.922699,91.310585 
	C147.436676,89.516418 148.177795,86.814560 149.452881,86.372437 
	C156.583069,83.900108 163.778702,81.227722 172.223145,82.087456 
	C168.667084,95.864037 163.411423,108.192245 153.799347,118.781952 
z" data-index="29" style="visibility: hidden; opacity: 1;"></path>

<path fill="#FAFCFF" opacity="1.000000" stroke="none" d="
M152.411499,216.925903 
	C148.518524,222.037094 145.253021,223.174698 141.275894,221.081436 
	C137.246750,218.960800 135.436325,213.714661 137.269928,208.904922 
	C138.650803,205.282776 141.535690,203.169250 145.332062,203.452133 
	C149.271454,203.745682 152.182922,206.136642 152.900177,210.192001 
	C153.262421,212.240112 152.737534,214.445129 152.411499,216.925903 
z" data-index="31" style="opacity: 1; visibility: hidden;"></path>

<path fill="#FAFCFF" opacity="1.000000" stroke="none" d="
M153.542938,174.062057 
	C154.290878,173.793716 155.265671,173.658051 155.365234,173.893097 
	C156.104660,175.638763 156.670303,177.458054 157.449936,179.715973 
	C155.270370,179.715973 153.726456,179.715973 151.525543,179.715973 
	C152.239487,177.639099 152.802002,176.002747 153.542938,174.062057 
z" data-index="33" style="visibility: hidden; opacity: 1;"></path>

</svg>